<?xml version="1.0" standalone="no"?>
<!DOCTYPE svg PUBLIC "-//W3C//DTD SVG 20010904//EN"
 "http://www.w3.org/TR/2001/REC-SVG-20010904/DTD/svg10.dtd">
<svg version="1.0" xmlns="http://www.w3.org/2000/svg"
 width="50pt" height="50pt" viewBox="0 0 646.000000 635.000000"
 preserveAspectRatio="xMidYMid meet">

<g transform="translate(0.000000,635.000000) scale(0.100000,-0.100000)"
fill="#000000" stroke="none">
<path d="M2965 6095 c-183 -18 -264 -31 -410 -66 -591 -144 -1112 -443 -1490
-855 -254 -277 -401 -491 -566 -824 -134 -271 -215 -548 -266 -910 -21 -156
-24 -554 -4 -710 37 -292 109 -550 231 -825 164 -371 333 -622 615 -913 379
-392 798 -652 1291 -802 215 -65 586 -129 799 -137 338 -13 823 80 1200 229
252 100 557 286 795 484 97 80 304 293 405 414 92 111 281 394 355 530 216
399 329 872 330 1378 0 193 -10 300 -51 522 -39 211 -93 397 -168 581 -75 184
-96 226 -216 424 -103 171 -161 252 -291 410 -485 589 -1182 973 -1929 1060
-185 22 -462 26 -630 10z m608 -209 c163 -21 392 -71 517 -113 547 -185 1029
-533 1370 -989 322 -430 493 -842 566 -1365 25 -174 25 -580 1 -734 -69 -432
-211 -798 -445 -1145 -109 -161 -214 -301 -251 -334 l-21 -19 2 463 3 462 110
2 c125 2 150 11 208 75 55 61 59 88 55 341 -3 217 -4 226 -26 258 -13 18 -37
39 -54 48 -36 18 -215 33 -410 34 -71 0 -128 3 -128 6 0 3 8 18 19 32 55 80
75 162 60 256 -17 103 -71 186 -323 496 -83 102 -208 259 -278 349 -71 90
-145 183 -166 206 -158 171 -348 245 -628 245 -76 0 -94 3 -94 15 0 8 9 19 19
24 19 11 110 149 149 226 93 186 87 420 -15 605 -53 96 -188 226 -283 272
-164 80 -309 92 -465 40 -118 -40 -175 -73 -254 -148 -153 -145 -225 -344
-200 -560 17 -151 86 -315 168 -403 28 -29 51 -59 51 -66 0 -10 -39 -14 -162
-17 -146 -4 -171 -7 -243 -32 -97 -33 -176 -80 -250 -148 -30 -28 -141 -160
-245 -294 -105 -134 -225 -285 -268 -336 -82 -98 -129 -161 -205 -269 -123
-174 -136 -304 -46 -452 16 -26 29 -49 29 -51 0 -3 -107 -2 -238 1 -225 6
-240 5 -284 -15 -36 -15 -52 -31 -69 -64 -21 -40 -23 -59 -27 -262 -5 -246 -1
-270 55 -335 51 -61 82 -71 213 -71 l110 0 0 -480 c0 -272 -4 -480 -9 -480
-13 0 -119 116 -193 211 -80 104 -182 251 -236 344 -53 91 -169 351 -216 485
-38 110 -96 362 -118 515 -20 137 -17 568 5 725 50 359 119 584 268 882 234
466 627 900 1062 1172 374 233 794 370 1257 410 88 8 437 -4 553 -18z m-212
-436 c202 -62 319 -234 319 -466 0 -172 -120 -368 -270 -442 -49 -24 -66 -27
-155 -27 -137 0 -196 24 -285 114 -158 159 -205 412 -113 601 91 186 308 281
504 220z m-116 -1201 c593 5 697 0 793 -44 117 -53 164 -101 376 -371 159
-203 293 -371 351 -439 27 -33 77 -99 109 -148 53 -77 60 -94 64 -145 8 -116
-60 -165 -261 -187 -69 -8 -144 -19 -167 -25 l-41 -11 40 -29 c47 -34 61 -57
61 -99 0 -16 5 -33 12 -37 7 -4 84 -11 173 -15 499 -21 730 -32 731 -33 1 0 4
-82 5 -181 l4 -180 -500 -3 c-534 -3 -704 2 -671 22 46 27 99 83 140 150 69
110 88 158 84 219 -3 51 -4 52 -42 65 -21 7 -78 15 -127 19 -48 3 -93 9 -99
13 -8 5 -13 55 -14 161 l-1 154 77 8 c100 10 266 52 298 76 21 16 25 26 23 65
-2 57 -21 89 -63 106 -45 18 -145 -1 -207 -40 -26 -17 -53 -30 -60 -30 -7 0
-10 -6 -8 -12 3 -7 -4 -24 -15 -38 -15 -18 -18 -20 -13 -6 4 12 3 17 -4 13
-20 -12 -25 36 -32 293 -8 279 -10 292 -71 344 -17 14 -50 31 -73 37 -31 8
-270 10 -882 7 -901 -5 -859 -2 -918 -57 -61 -56 -62 -64 -60 -319 2 -204 1
-233 -13 -239 -9 -3 -59 4 -113 16 -58 13 -120 21 -155 19 -50 -3 -62 -7 -79
-29 -10 -15 -21 -47 -24 -71 -5 -40 -2 -47 21 -66 15 -12 69 -30 124 -42 53
-12 126 -30 162 -40 l65 -17 7 -102 c4 -55 4 -118 0 -139 l-8 -37 -53 2 c-36
2 -57 8 -65 19 -16 21 -100 40 -239 54 -62 6 -134 18 -161 27 -89 28 -165 121
-166 200 0 64 40 127 255 398 137 172 185 233 334 430 116 151 224 245 333
287 65 25 280 39 493 31 77 -3 199 -5 270 -4z m46 -519 l756 0 5 -452 c3 -249
2 -456 -1 -460 -3 -4 -363 -8 -799 -9 l-793 -1 0 463 c0 255 1 466 1 468 0 2
17 1 38 -3 20 -3 377 -6 793 -6z m-1341 -1072 c44 -170 107 -268 213 -328 l49
-28 -174 -6 c-207 -8 -988 6 -1005 17 -10 6 -13 54 -13 185 l0 177 212 1 c117
0 303 5 413 11 110 5 221 11 247 11 l47 2 11 -42z m2139 -57 l223 -1 -33 -37
c-18 -21 -48 -49 -67 -63 l-35 -25 -681 -7 c-768 -9 -1167 -3 -1206 17 -21 11
-120 107 -120 117 0 3 1368 2 1919 -1z m305 -486 c116 -8 243 -15 281 -15 l70
0 -1 -697 0 -697 -70 -43 c-113 -70 -242 -138 -347 -182 -93 -40 -342 -121
-416 -136 l-34 -7 60 113 c126 236 383 756 404 814 12 36 23 97 26 152 5 81 2
102 -21 177 -18 58 -40 103 -72 145 -91 121 -179 178 -308 202 -123 23 -294
-20 -384 -96 -44 -37 -113 -129 -146 -194 -26 -50 -29 -53 -58 -47 -17 3 -88
6 -158 6 l-127 0 -33 63 c-45 84 -150 186 -232 225 -227 109 -486 27 -623
-198 -46 -77 -65 -148 -65 -249 0 -158 3 -166 311 -766 96 -187 175 -343 177
-347 8 -18 -245 54 -418 120 -115 43 -305 136 -387 188 l-53 34 0 716 0 715
108 -1 c171 -3 1155 20 1161 27 11 11 1141 -7 1355 -22z m-2824 -650 c0 -355
-2 -645 -5 -645 -3 0 -41 30 -85 67 l-80 66 0 579 0 578 85 0 85 0 0 -645z
m3540 82 l0 -564 -76 -67 c-42 -37 -78 -66 -79 -64 -2 2 -6 285 -9 631 l-6
627 85 0 85 0 0 -563z m-1144 188 c64 -19 122 -68 159 -136 28 -50 30 -62 30
-154 l0 -101 -177 -354 c-97 -195 -188 -384 -203 -420 -15 -36 -49 -101 -76
-146 -26 -44 -52 -92 -58 -106 -7 -18 -22 -29 -53 -38 -54 -15 -548 -27 -548
-13 0 6 34 84 76 174 42 90 98 214 124 274 27 61 60 137 75 170 15 33 55 130
90 215 106 263 215 488 263 541 89 99 182 129 298 94z m-1230 -19 c69 -32 131
-107 178 -213 38 -86 171 -342 225 -433 l27 -45 -37 -80 c-20 -44 -67 -143
-104 -220 -94 -195 -141 -297 -148 -317 -4 -10 -11 -18 -16 -18 -8 0 -72 108
-120 200 -4 8 -65 122 -135 253 -70 131 -157 299 -194 375 l-67 137 0 90 c0
78 4 97 28 147 48 97 130 146 247 147 48 1 78 -5 116 -23z m594 -301 c0 -2
-18 -39 -39 -82 l-39 -77 -38 75 c-22 41 -40 77 -42 82 -2 4 33 7 77 7 45 0
81 -2 81 -5z"/>
<path d="M1803 5058 c-11 -5 -29 -25 -39 -43 -23 -44 -11 -104 26 -122 37 -19
419 -18 465 1 32 14 65 59 65 90 0 27 -22 64 -44 74 -29 13 -445 14 -473 0z"/>
<path d="M1570 5037 c0 -8 11 -19 25 -25 33 -15 36 -15 29 3 -4 10 0 15 12 16
18 0 17 1 -1 9 -31 13 -65 11 -65 -3z"/>
<path d="M1169 4719 c-33 -35 -35 -48 -14 -89 22 -42 43 -50 133 -50 77 0 81
1 106 31 30 35 32 58 11 98 -19 37 -31 41 -127 41 -77 0 -81 -1 -109 -31z"/>
<path d="M1571 4724 c-28 -36 -27 -86 3 -121 l24 -28 151 -3 151 -3 30 30 c39
38 41 91 5 126 -24 24 -28 25 -184 25 l-160 0 -20 -26z"/>
<path d="M2134 4743 c-42 -8 -57 -84 -25 -124 16 -20 29 -23 112 -26 105 -4
136 6 157 50 17 36 -5 81 -49 96 -30 10 -150 13 -195 4z"/>
<path d="M1193 4420 c-52 -21 -59 -95 -12 -134 l31 -26 205 0 205 0 29 29 c35
35 38 77 8 115 l-20 26 -212 -1 c-117 0 -222 -4 -234 -9z"/>
<path d="M3152 3419 c-84 -48 -116 -121 -93 -209 25 -94 101 -160 182 -160 78
1 173 72 204 153 22 57 8 112 -41 167 -75 83 -163 100 -252 49z"/>
<path d="M745 5771 c-180 -7 -201 -14 -243 -90 -20 -36 -22 -53 -23 -287 l-1
-248 36 -33 c48 -44 92 -45 142 -1 l36 32 -4 218 -3 218 181 0 182 0 31 35
c73 84 6 169 -129 163 -25 -1 -117 -4 -205 -7z"/>
<path d="M5530 5771 c-141 -6 -155 -10 -183 -51 -26 -37 -21 -68 17 -106 l34
-34 179 0 178 0 -3 -198 c-3 -160 -1 -205 11 -234 20 -47 57 -71 109 -71 34 0
47 6 70 32 l29 32 -3 264 c-3 298 -3 297 -86 343 -49 27 -135 33 -352 23z"/>
<path d="M526 1051 c-16 -11 -34 -28 -40 -38 -13 -23 -9 -433 5 -487 6 -21 28
-57 49 -80 l39 -41 224 -3 224 -3 30 25 c43 36 59 78 43 115 -26 63 -35 66
-234 71 l-181 5 4 180 c4 201 -3 231 -59 260 -39 20 -69 19 -104 -4z"/>
<path d="M5795 1039 l-35 -31 0 -202 0 -203 -172 4 c-196 5 -212 1 -242 -60
-17 -36 -17 -40 -1 -83 28 -73 44 -77 279 -72 223 5 238 9 294 72 17 20 36 52
41 73 6 21 11 129 11 241 0 161 -3 209 -15 232 -35 67 -102 79 -160 29z"/>
</g>
</svg>
