<?xml version="1.0" standalone="no"?>
<!DOCTYPE svg PUBLIC "-//W3C//DTD SVG 20010904//EN"
 "http://www.w3.org/TR/2001/REC-SVG-20010904/DTD/svg10.dtd">
<svg version="1.0" xmlns="http://www.w3.org/2000/svg"
 width="20pt" height="20pt" viewBox="0 0 512.000000 512.000000"
 preserveAspectRatio="xMidYMid meet">

<g transform="translate(0.000000,512.000000) scale(0.100000,-0.100000)"
fill="#000000" stroke="none">
<path d="M638 5110 c-284 -48 -519 -261 -610 -550 l-23 -75 0 -1930 0 -1930
27 -80 c87 -253 260 -426 513 -513 l80 -27 1930 0 1930 0 75 23 c139 44 225
96 330 202 106 105 158 191 202 330 l23 75 0 1925 0 1925 -23 75 c-83 263
-260 441 -527 531 l-70 24 -1905 1 c-1048 1 -1926 -2 -1952 -6z m3269 -616
c150 -31 275 -99 382 -207 98 -99 160 -207 199 -341 16 -57 17 -158 17 -1386
0 -1228 -1 -1329 -17 -1386 -81 -282 -301 -490 -580 -548 -68 -14 -225 -16
-1348 -16 -1386 0 -1346 -2 -1484 57 -179 75 -334 230 -409 408 -59 140 -57
98 -57 1485 0 1383 -2 1343 56 1484 89 220 304 399 540 449 107 24 2589 24
2701 1z"/>
<path d="M1255 4196 c-84 -21 -147 -57 -211 -121 -65 -65 -105 -136 -123 -223
-16 -76 -16 -2510 0 -2584 37 -172 175 -310 347 -347 74 -16 2508 -16 2584 0
170 36 311 178 347 347 16 76 16 2510 0 2584 -37 172 -176 311 -347 347 -80
17 -2529 14 -2597 -3z m2489 -320 c105 -51 161 -144 161 -266 0 -85 -21 -142
-74 -203 -82 -92 -237 -121 -353 -64 -160 79 -215 278 -118 430 80 126 246
170 384 103z m-944 -294 c198 -52 365 -146 501 -281 135 -135 226 -297 282
-501 29 -109 29 -371 0 -480 -56 -204 -147 -366 -282 -501 -135 -135 -297
-226 -501 -282 -110 -30 -371 -29 -483 1 -399 109 -670 381 -779 782 -32 115
-31 362 1 484 109 420 448 730 866 796 93 14 308 4 395 -18z"/>
<path d="M2405 3293 c-236 -50 -450 -228 -539 -449 -176 -433 87 -923 546
-1018 246 -51 499 26 677 207 138 140 205 289 218 487 27 425 -325 794 -754
789 -43 0 -109 -7 -148 -16z"/>
</g>
</svg>
